<svg id="Component_1_1" data-name="Component 1 – 1" xmlns="http://www.w3.org/2000/svg" width="1948.897" height="294.211" viewBox="0 0 1948.897 294.211">
  <g id="Union_9" data-name="Union 9" transform="translate(0)" fill="#fff">
    <path d="M 1784.167358398438 293.7112121582031 C 1762.998901367188 293.7114562988281 1741.477294921875 291.4961853027344 1720.200317382812 287.126953125 C 1705.277587890625 284.0624389648438 1690.731567382812 279.9799499511719 1676.9658203125 274.9927062988281 C 1663.586303710938 270.1452026367188 1650.855346679688 264.4122009277344 1639.126586914062 257.9526977539062 L 1638.887817382812 257.8211975097656 L 1638.647827148438 257.95068359375 C 1625.009887695312 265.3132019042969 1610.320068359375 271.0354614257812 1594.986083984375 274.9587097167969 C 1579.513061523438 278.9174499511719 1563.841796875 280.9252014160156 1548.407592773438 280.9262084960938 C 1532.387573242188 280.9271850585938 1516.994384765625 278.7576904296875 1502.655639648438 274.4776916503906 C 1490.809326171875 270.9419555664062 1480.020385742188 266.0537109375 1470.58837890625 259.9486999511719 C 1461.459594726562 254.0399475097656 1453.650146484375 247.0267028808594 1447.376586914062 239.1039428710938 L 1447.082885742188 238.7332000732422 L 1446.6962890625 239.0059509277344 C 1435.893798828125 246.6309509277344 1423.909301757812 252.5639495849609 1411.075073242188 256.6397094726562 C 1397.796875 260.8564453125 1383.871826171875 262.9944458007812 1369.686645507812 262.9944458007812 C 1359.17236328125 262.9944458007812 1348.720581054688 261.8081970214844 1338.621826171875 259.4689331054688 C 1328.818603515625 257.1982116699219 1319.316040039062 253.8349456787109 1310.378051757812 249.4729461669922 L 1310.180908203125 249.3764495849609 L 1309.976318359375 249.4566955566406 C 1299.138549804688 253.7081909179688 1287.441650390625 256.7474365234375 1275.210327148438 258.4896850585938 C 1267.242553710938 259.6249389648438 1259.081787109375 260.20068359375 1250.954833984375 260.2009582519531 C 1240.727294921875 260.2009582519531 1230.4150390625 259.293701171875 1220.304809570312 257.5042114257812 C 1210.400634765625 255.7509460449219 1200.644897460938 253.1439514160156 1191.308837890625 249.7556915283203 C 1182.0576171875 246.398193359375 1173.195068359375 242.2651977539062 1164.967041015625 237.4716949462891 C 1156.71240234375 232.6624450683594 1149.07861328125 227.1779479980469 1142.2783203125 221.1704406738281 L 1141.996826171875 220.9219512939453 L 1141.679809570312 221.1229400634766 C 1132.604125976562 226.8724517822266 1122.812622070312 231.3197021484375 1112.5771484375 234.3409423828125 C 1102.013305664062 237.4589538574219 1091.0263671875 239.0399475097656 1079.9208984375 239.0399475097656 C 1071.645141601562 239.0399475097656 1063.38330078125 238.1564483642578 1055.365112304688 236.4141998291016 C 1047.555908203125 234.7171936035156 1039.89306640625 232.1879425048828 1032.58984375 228.8966979980469 L 1032.284057617188 228.7589416503906 L 1032.040649414062 228.9894409179688 C 1026.939086914062 233.8189544677734 1021.095581054688 238.2382049560547 1014.6728515625 242.1241912841797 C 1008.209838867188 246.0349426269531 1001.150573730469 249.4109497070312 993.6918334960938 252.15869140625 C 986.0946044921875 254.9574432373047 978.05859375 257.1124572753906 969.8063354492188 258.564453125 C 961.3140869140625 260.0584411621094 952.5396118164062 260.8159484863281 943.7266235351562 260.8159484863281 C 935.7653198242188 260.8159484863281 927.818115234375 260.1966857910156 920.1053466796875 258.9757080078125 C 912.5963745117188 257.7867126464844 905.2316284179688 256.0154418945312 898.2158203125 253.7109527587891 C 891.3291015625 251.4489440917969 884.7223510742188 248.6551971435547 878.5791015625 245.4074401855469 C 872.4908447265625 242.1886901855469 866.8173217773438 238.5029449462891 861.7166137695312 234.4524536132812 L 861.4408569335938 234.2334442138672 L 861.141845703125 234.4192047119141 C 855.715576171875 237.7877044677734 849.9611206054688 240.3829498291016 844.03759765625 242.1329498291016 C 837.9413452148438 243.9337005615234 831.6358642578125 244.8469543457031 825.2965698242188 244.8469543457031 C 819.6403198242188 244.8469543457031 813.996826171875 244.1184539794922 808.5223388671875 242.6817016601562 C 803.192626953125 241.2826995849609 797.9710693359375 239.1994476318359 793.0028686523438 236.4894409179688 C 788.1226196289062 233.8276977539062 783.4508666992188 230.5421905517578 779.1176147460938 226.7241973876953 C 774.8170776367188 222.9354400634766 770.8250732421875 218.6006927490234 767.2528686523438 213.8406982421875 L 767.0258178710938 213.5386962890625 L 766.67333984375 213.6741943359375 C 755.2723388671875 218.0616912841797 742.7745971679688 221.4674530029297 729.52734375 223.7964477539062 C 715.829345703125 226.2046966552734 701.5145874023438 227.4257049560547 686.9805908203125 227.4257049560547 C 651.9290771484375 227.4257049560547 618.5220947265625 220.28369140625 592.913330078125 207.3154449462891 L 592.6193237304688 207.1664428710938 L 592.3665771484375 207.3779449462891 C 576.9036254882812 220.3059539794922 556.7353515625 227.4257049560547 535.5768432617188 227.4257049560547 C 518.974609375 227.4257049560547 502.9446105957031 223.0604400634766 489.2196044921875 214.8019409179688 L 488.8905944824219 214.6039428710938 L 488.6143493652344 214.8709411621094 C 483.8528442382812 219.4734497070312 478.5455932617188 223.6629486083984 472.840087890625 227.3234405517578 C 467.0856018066406 231.0154418945312 460.8898620605469 234.1919403076172 454.4248352050781 236.7646942138672 C 447.839111328125 239.3854522705078 440.9220886230469 241.4001922607422 433.8656005859375 242.7529449462891 C 426.6166076660156 244.1424407958984 419.1451110839844 244.8469543457031 411.6590881347656 244.8469543457031 C 385.2586059570312 244.8469543457031 360.0733337402344 236.1109466552734 340.7423400878906 220.2484436035156 L 340.4625854492188 220.0189514160156 L 340.1573486328125 220.2126922607422 C 328.55859375 227.5701904296875 315.6296081542969 233.3002014160156 301.7295837402344 237.2436981201172 C 287.3433532714844 241.3251953125 272.2363586425781 243.3946990966797 256.8280944824219 243.3946990966797 C 230.5290985107422 243.3946990966797 205.0668487548828 237.3174438476562 183.19384765625 225.8201904296875 L 182.9196014404297 225.6759490966797 L 182.6685943603516 225.8571929931641 C 176.2785949707031 230.4684448242188 169.5173492431641 234.6421966552734 162.5726013183594 238.2621917724609 C 155.6138458251953 241.8891906738281 148.3988494873047 244.9981994628906 141.1278533935547 247.50244140625 C 133.7810974121094 250.0329437255859 126.2963485717773 251.9736938476562 118.8808517456055 253.2711944580078 C 111.3311004638672 254.5921936035156 103.7595977783203 255.2621917724609 96.37709808349609 255.2626953125 L 96.360595703125 255.2626953125 C 88.84934997558594 255.2626953125 81.42034912109375 254.5666961669922 74.27984619140625 253.1941986083984 C 45.81159973144531 247.7216949462891 23.27634811401367 231.8002014160156 10.82484817504883 208.3629455566406 C 7.557598114013672 202.2126922607422 5.024348258972168 195.5916900634766 3.295598030090332 188.6837005615234 C 1.551098108291626 181.7131958007812 0.6138481497764587 174.4019470214844 0.5095981359481812 166.9526977539062 C 0.4035981297492981 159.3624420166016 1.16234815120697 151.564453125 2.76459813117981 143.7751922607422 C 4.410848140716553 135.772705078125 6.966348171234131 127.6924438476562 10.35984802246094 119.7589492797852 C 16.07609748840332 106.3946990966797 23.99484825134277 93.76619720458984 33.89609909057617 82.22419738769531 C 43.4650993347168 71.06945037841797 54.63334655761719 61.2109489440918 67.09059906005859 52.92294692993164 C 79.45234680175781 44.69819641113281 92.67610168457031 38.28894805908203 106.3938446044922 33.87269592285156 C 120.3948516845703 29.36544799804688 134.4763488769531 27.07994842529297 148.2471008300781 27.07994842529297 C 155.7703552246094 27.07994842529297 163.2053527832031 27.77594757080078 170.3450927734375 29.14819717407227 C 180.9476013183594 31.18619728088379 190.8028411865234 34.6849479675293 199.6376037597656 39.54719924926758 L 199.8385925292969 39.6579475402832 L 200.0536041259766 39.57744598388672 C 208.7570953369141 36.32494735717773 217.9218444824219 33.82269668579102 227.2933502197266 32.14069747924805 C 236.9270935058594 30.41144752502441 246.8641052246094 29.53469848632812 256.8280944824219 29.53469848632812 C 267.4158630371094 29.53469848632812 277.9566040039062 30.52344703674316 288.1575927734375 32.47319793701172 C 298.0700988769531 34.36794662475586 307.7213439941406 37.18044662475586 316.8433532714844 40.83269882202148 C 325.8005981445312 44.41869735717773 334.2745971679688 48.82444763183594 342.0303344726562 53.92744827270508 C 349.7398376464844 58.99994659423828 356.7496032714844 64.7677001953125 362.8651123046875 71.07044982910156 L 363.1118469238281 71.32469940185547 L 363.43359375 71.17620086669922 C 370.7208557128906 67.80894470214844 378.4570922851562 65.21419525146484 386.4270935058594 63.46369934082031 C 394.6328430175781 61.66119766235352 403.1221008300781 60.7474479675293 411.6590881347656 60.7474479675293 C 419.1451110839844 60.7474479675293 426.6166076660156 61.45194625854492 433.8656005859375 62.84144592285156 C 440.9220886230469 64.19419860839844 447.839111328125 66.20894622802734 454.4248352050781 68.82969665527344 C 460.8898620605469 71.40245056152344 467.0856018066406 74.57894897460938 472.840087890625 78.27069854736328 C 478.5455932617188 81.93094635009766 483.8528442382812 86.12020111083984 488.6143493652344 90.72245025634766 L 488.8905944824219 90.98944854736328 L 489.2196044921875 90.79145050048828 C 502.9453430175781 82.53369903564453 518.9755859375 78.1689453125 535.5768432617188 78.1689453125 C 556.736083984375 78.1689453125 576.9043579101562 85.28844451904297 592.3665771484375 98.2156982421875 L 592.6193237304688 98.42720031738281 L 592.913330078125 98.2781982421875 C 618.5208740234375 85.31069946289062 651.9278564453125 78.1689453125 686.9805908203125 78.1689453125 C 715.0203247070312 78.1689453125 742.0068359375 82.70745086669922 765.0225830078125 91.2939453125 L 765.3840942382812 91.42869567871094 L 765.6063232421875 91.11319732666016 C 769.184326171875 86.02869415283203 773.224365234375 81.38919830322266 777.6143188476562 77.32344818115234 C 782.0333251953125 73.23094940185547 786.8238525390625 69.70420074462891 791.8533325195312 66.84169769287109 C 796.9725952148438 63.92769622802734 802.3678588867188 61.68594741821289 807.8895874023438 60.1786994934082 C 813.5648193359375 58.62944793701172 819.4213256835938 57.84394836425781 825.2965698242188 57.84394836425781 C 832.3848266601562 57.84394836425781 839.4091186523438 58.98244857788086 846.1746215820312 61.22794723510742 C 852.736328125 63.40569686889648 859.0438232421875 66.61919403076172 864.921875 70.77869415283203 C 876.5455932617188 79.00419616699219 886.2483520507812 90.76044464111328 892.9810791015625 104.7766952514648 L 893.1783447265625 105.1869506835938 L 893.6053466796875 105.0291976928711 C 901.2228393554688 102.2126998901367 909.2821044921875 100.043701171875 917.559326171875 98.58245086669922 C 926.07958984375 97.07820129394531 934.8833618164062 96.31544494628906 943.7266235351562 96.31544494628906 C 950.6493530273438 96.31544494628906 957.5828247070312 96.78495025634766 964.3343505859375 97.71094512939453 L 964.8060913085938 97.77569580078125 L 964.8938598632812 97.30770111083984 C 967.43359375 83.73569488525391 972.2421264648438 70.82094573974609 979.1858520507812 58.92169952392578 C 982.5661010742188 53.12919616699219 986.4603271484375 47.58644866943359 990.7606201171875 42.44769668579102 C 995.0453491210938 37.32719802856445 999.787109375 32.54294586181641 1004.854125976562 28.22744750976562 C 1015.16357421875 19.44769668579102 1026.752319335938 12.59944725036621 1039.298095703125 7.872447490692139 C 1052.282104492188 2.98044753074646 1065.949584960938 0.4999476373195648 1079.9208984375 0.4999476373195648 C 1090.267822265625 0.4999476373195648 1100.532104492188 1.875447630882263 1110.428344726562 4.587947845458984 C 1120.027587890625 7.218947410583496 1129.281127929688 11.10594749450684 1137.931884765625 16.14069747924805 C 1146.438598632812 21.0914478302002 1154.32958984375 27.13144683837891 1161.385131835938 34.09244918823242 C 1168.433837890625 41.04644775390625 1174.60888671875 48.88019943237305 1179.738647460938 57.37619781494141 L 1179.947143554688 57.7214469909668 L 1180.32861328125 57.5906982421875 C 1189.446044921875 54.46894836425781 1199.147827148438 52.16219711303711 1209.1640625 50.73444747924805 C 1217.13134765625 49.59919738769531 1225.291137695312 49.02369689941406 1233.416381835938 49.02369689941406 C 1242.978637695312 49.02369689941406 1252.62939453125 49.81769943237305 1262.10107421875 51.38394927978516 C 1271.385620117188 52.91919708251953 1280.56982421875 55.20744705200195 1289.399047851562 58.18519592285156 L 1289.648071289062 58.26919937133789 L 1289.8583984375 58.11169815063477 C 1300.886596679688 49.85969924926758 1313.2373046875 43.42694854736328 1326.5673828125 38.99244689941406 C 1340.364379882812 34.4026985168457 1354.87158203125 32.07544708251953 1369.686645507812 32.07544708251953 C 1381.974609375 32.07544708251953 1394.118896484375 33.68794631958008 1405.782348632812 36.86794662475586 C 1417.076904296875 39.94744873046875 1427.847290039062 44.47344589233398 1437.794799804688 50.32019805908203 C 1447.592895507812 56.07919692993164 1456.480590820312 63.05144882202148 1464.211059570312 71.0439453125 C 1471.973876953125 79.06919860839844 1478.469848632812 88.02044677734375 1483.5185546875 97.64894866943359 L 1483.785400390625 98.15769958496094 L 1484.252319335938 97.82319641113281 C 1491.86962890625 92.36869812011719 1500.140625 87.41694641113281 1508.835327148438 83.10519409179688 C 1517.451538085938 78.83245086669922 1526.5361328125 75.16220092773438 1535.836791992188 72.19619750976562 C 1545.15234375 69.22570037841797 1554.73681640625 66.9449462890625 1564.324584960938 65.41744995117188 C 1574.029296875 63.8714485168457 1583.80029296875 63.08744812011719 1593.366088867188 63.08744812011719 C 1608.034790039062 63.08744812011719 1622.216552734375 64.91244506835938 1635.517822265625 68.51169586181641 L 1635.674560546875 68.55394744873047 L 1635.826538085938 68.49620056152344 C 1648.718383789062 63.57994842529297 1662.835083007812 59.78969573974609 1677.784057617188 57.23019790649414 C 1692.930297851562 54.63719940185547 1708.853393554688 53.32244873046875 1725.11083984375 53.32244873046875 C 1746.279907226562 53.32244873046875 1767.802368164062 55.53794860839844 1789.08056640625 59.90719604492188 C 1805.990600585938 63.37969589233398 1822.363647460938 68.14519500732422 1837.744384765625 74.07144927978516 C 1852.659057617188 79.81794738769531 1866.639038085938 86.65269470214844 1879.2958984375 94.38544464111328 C 1891.736328125 101.986198425293 1902.847290039062 110.4211959838867 1912.319580078125 119.4564514160156 C 1921.7763671875 128.4769439697266 1929.543823242188 138.0414428710938 1935.406127929688 147.8847045898438 C 1941.685546875 158.4286956787109 1945.739624023438 169.2229461669922 1947.454833984375 179.9676971435547 C 1949.22314453125 191.0446929931641 1948.494384765625 202.0307006835938 1945.28857421875 212.6201934814453 C 1941.606567382812 224.7829437255859 1934.772094726562 236.095703125 1924.97509765625 246.2439422607422 C 1915.486083984375 256.0734558105469 1903.365112304688 264.6701965332031 1888.949096679688 271.7954406738281 C 1874.6943359375 278.8409423828125 1858.4951171875 284.3027038574219 1840.801635742188 288.0289611816406 C 1822.899658203125 291.7991943359375 1803.845092773438 293.7109375 1784.167358398438 293.7112121582031 Z" stroke="none"/>
    <path d="M 1784.167358398438 294.2112121582031 L 1784.167358398438 293.2112121582031 C 1803.810546875 293.2109375 1822.830322265625 291.3027038574219 1840.698364257812 287.5397033691406 C 1858.35107421875 283.8219604492188 1874.510375976562 278.3739624023438 1888.7275390625 271.3471984863281 C 1903.091796875 264.2474365234375 1915.166381835938 255.6846923828125 1924.615356445312 245.8966979980469 C 1934.356567382812 235.8059539794922 1941.151123046875 224.5614471435547 1944.81005859375 212.4752044677734 C 1947.99365234375 201.9586944580078 1948.717407226562 191.0482025146484 1946.961059570312 180.0464477539062 C 1945.255859375 169.3647003173828 1941.2236328125 158.6299438476562 1934.976318359375 148.1404418945312 C 1929.137329101562 138.3364410400391 1921.398559570312 128.8074493408203 1911.974609375 119.8184509277344 C 1902.52783203125 110.8074493408203 1891.445556640625 102.3941955566406 1879.03515625 94.81195068359375 C 1866.404052734375 87.09494781494141 1852.451293945312 80.27369689941406 1837.564575195312 74.53794860839844 C 1822.209350585938 68.62169647216797 1805.863037109375 63.86394882202148 1788.979858398438 60.39694595336914 C 1767.735107421875 56.03444671630859 1746.24658203125 53.82244873046875 1725.11083984375 53.82244873046875 C 1708.881591796875 53.82244873046875 1692.98681640625 55.13494873046875 1677.86865234375 57.72319793701172 C 1662.951293945312 60.27694702148438 1648.866333007812 64.05870056152344 1636.004638671875 68.96319580078125 L 1635.700805664062 69.07920074462891 L 1635.387084960938 68.99419403076172 C 1622.128295898438 65.40644836425781 1607.990356445312 63.58744812011719 1593.366088867188 63.58744812011719 C 1583.826538085938 63.58744812011719 1574.082153320312 64.36919403076172 1564.403076171875 65.91119384765625 C 1554.84033203125 67.43470001220703 1545.280395507812 69.70969390869141 1535.988647460938 72.67269897460938 C 1526.712158203125 75.63095092773438 1517.651123046875 79.29169464111328 1509.0576171875 83.55319976806641 C 1500.386596679688 87.85295104980469 1492.138793945312 92.79094696044922 1484.543579101562 98.22969818115234 L 1483.609375 98.89869689941406 L 1483.075561523438 97.88119506835938 C 1478.049072265625 88.29494476318359 1471.5810546875 79.38269805908203 1463.851806640625 71.39144897460938 C 1456.152587890625 63.43169784545898 1447.300537109375 56.48719787597656 1437.541625976562 50.75119781494141 C 1427.632080078125 44.92694854736328 1416.902587890625 40.41819763183594 1405.65087890625 37.35044860839844 C 1394.030395507812 34.18194580078125 1381.930053710938 32.57544708251953 1369.686645507812 32.57544708251953 C 1354.92529296875 32.57544708251953 1340.471069335938 34.89394760131836 1326.72509765625 39.46694946289062 C 1313.446044921875 43.88444900512695 1301.14306640625 50.29219818115234 1290.157836914062 58.51219940185547 L 1289.737060546875 58.82694625854492 L 1289.239379882812 58.6589469909668 C 1280.435546875 55.689697265625 1271.27734375 53.4079475402832 1262.019653320312 51.877197265625 C 1252.574584960938 50.31544876098633 1242.951049804688 49.52369689941406 1233.416381835938 49.52369689941406 C 1225.314086914062 49.52369689941406 1217.178100585938 50.09769821166992 1209.234619140625 51.22944641113281 C 1199.249389648438 52.6526985168457 1189.578369140625 54.95194625854492 1180.490600585938 58.06369781494141 L 1179.727294921875 58.32494735717773 L 1179.310546875 57.63469696044922 C 1174.2021484375 49.17419815063477 1168.053100585938 41.37319946289062 1161.034057617188 34.44819641113281 C 1154.00830078125 27.51669692993164 1146.15087890625 21.5026969909668 1137.680297851562 16.57269668579102 C 1129.06689453125 11.5599479675293 1119.853637695312 7.689697742462158 1110.29638671875 5.070197582244873 C 1100.44287109375 2.369447708129883 1090.22314453125 0.9999476075172424 1079.9208984375 0.9999476075172424 C 1066.010131835938 0.9999476075172424 1052.40185546875 3.469697713851929 1039.474365234375 8.340447425842285 C 1026.982543945312 13.04694747924805 1015.44384765625 19.86594772338867 1005.178344726562 28.60819816589355 C 1000.132568359375 32.90544891357422 995.4108276367188 37.66944885253906 991.1441040039062 42.76844787597656 C 986.8618774414062 47.88594818115234 982.9838256835938 53.40544891357422 979.6178588867188 59.17369842529297 C 972.703125 71.02320098876953 967.9146118164062 83.88420104980469 965.3853759765625 97.39969635009766 L 965.2100830078125 98.33594512939453 L 964.266357421875 98.20645141601562 C 957.537353515625 97.283447265625 950.6265869140625 96.81544494628906 943.7266235351562 96.81544494628906 C 934.91259765625 96.81544494628906 926.1378784179688 97.57569885253906 917.6463623046875 99.07469940185547 C 909.3983764648438 100.5309448242188 901.3681030273438 102.6919479370117 893.7786254882812 105.4981994628906 L 892.9246215820312 105.8139495849609 L 892.5303344726562 104.9931945800781 C 885.8343505859375 91.05344390869141 876.1876220703125 79.36344909667969 864.6331176757812 71.18695068359375 C 858.7951049804688 67.05569458007812 852.5318603515625 63.86469650268555 846.01708984375 61.70244598388672 C 839.3026123046875 59.47394943237305 832.3311157226562 58.34394836425781 825.2965698242188 58.34394836425781 C 819.4658203125 58.34394836425781 813.6536254882812 59.12344741821289 808.0211181640625 60.66094589233398 C 802.5401000976562 62.15719604492188 797.18359375 64.38294982910156 792.1005859375 67.27619934082031 C 787.1046142578125 70.11994934082031 782.3448486328125 73.62369537353516 777.9541015625 77.69020080566406 C 773.58984375 81.73220062255859 769.5728759765625 86.34494781494141 766.0150756835938 91.40094757080078 L 765.5708618164062 92.03219604492188 L 764.8478393554688 91.762451171875 C 741.8873291015625 83.19670104980469 714.9613647460938 78.6689453125 686.9805908203125 78.6689453125 C 652.0048217773438 78.6689453125 618.6781005859375 85.79145050048828 593.1390991210938 98.72444915771484 L 592.5513305664062 99.02194976806641 L 592.0458374023438 98.59944915771484 C 576.67333984375 85.7469482421875 556.6188354492188 78.6689453125 535.5768432617188 78.6689453125 C 519.0663452148438 78.6689453125 503.1253356933594 83.00894927978516 489.4773559570312 91.21994781494141 L 488.819091796875 91.61569976806641 L 488.266845703125 91.08194732666016 C 483.5290832519531 86.50270080566406 478.2478332519531 82.33394622802734 472.5700988769531 78.69144439697266 C 466.8423461914062 75.01694488525391 460.6753540039062 71.85519409179688 454.2398376464844 69.29419708251953 C 447.68359375 66.68494415283203 440.7968444824219 64.67919921875 433.7713623046875 63.33244705200195 C 426.5533447265625 61.94894790649414 419.1135864257812 61.2474479675293 411.6590881347656 61.2474479675293 C 403.1581115722656 61.2474479675293 394.704833984375 62.15744781494141 386.5343627929688 63.95194625854492 C 378.599609375 65.6949462890625 370.8978576660156 68.2781982421875 363.6433410644531 71.62994384765625 L 362.9998474121094 71.92720031738281 L 362.506103515625 71.41844940185547 C 356.4161071777344 65.14194488525391 349.4346008300781 59.39769744873047 341.7555847167969 54.34519577026367 C 334.0278625488281 49.26069641113281 325.5835876464844 44.87044906616211 316.6575927734375 41.29669952392578 C 307.5650939941406 37.65644836425781 297.9448547363281 34.85294723510742 288.0638427734375 32.96444702148438 C 277.8935852050781 31.02044677734375 267.3846130371094 30.03469848632812 256.8280944824219 30.03469848632812 C 246.8936004638672 30.03469848632812 236.9863433837891 30.9086971282959 227.381591796875 32.63269805908203 C 218.0398406982422 34.3094482421875 208.9040985107422 36.8036994934082 200.2285919189453 40.04594802856445 L 199.7985992431641 40.20669937133789 L 199.3963470458984 39.98519897460938 C 190.6078491210938 35.14819717407227 180.8018493652344 31.66744804382324 170.2508544921875 29.63919830322266 C 163.1413421630859 28.27269744873047 155.7383422851562 27.57994842529297 148.2471008300781 27.57994842529297 C 134.5283508300781 27.57994842529297 120.4985961914062 29.85719680786133 106.5473480224609 34.34869766235352 C 92.87310028076172 38.75069808959961 79.69110107421875 45.13994598388672 67.36759948730469 53.33919906616211 C 54.94834899902344 61.60194778442383 43.81459808349609 71.42969512939453 34.27559661865234 82.54969787597656 C 24.4075984954834 94.05319976806641 16.51584815979004 106.6381988525391 10.81959819793701 119.9554443359375 C 7.439098358154297 127.8584442138672 4.893847942352295 135.9064483642578 3.254348039627075 143.8759460449219 C 1.659348130226135 151.6299438476562 0.9040981531143188 159.3916931152344 1.009598135948181 166.9456939697266 C 1.11309814453125 174.3564453125 2.045348167419434 181.6291961669922 3.780598163604736 188.5624542236328 C 5.499598026275635 195.4311981201172 8.018097877502441 202.0139465332031 11.26634788513184 208.1282043457031 C 23.64534759521484 231.429443359375 46.05759811401367 247.2597045898438 74.37409973144531 252.7032012939453 C 81.48359680175781 254.0697021484375 88.88085174560547 254.7626953125 96.360595703125 254.7626953125 L 96.37709808349609 254.7626953125 C 103.7308502197266 254.7621917724609 111.2731018066406 254.0946960449219 118.7946014404297 252.7787017822266 C 126.1840972900391 251.4857025146484 133.6433410644531 249.5514526367188 140.9651031494141 247.0296936035156 C 148.2128448486328 244.533447265625 155.4048461914062 241.4344482421875 162.3413543701172 237.8186950683594 C 169.2648468017578 234.2099456787109 176.0055999755859 230.0489501953125 182.3758544921875 225.4516906738281 L 182.8780975341797 225.0894470214844 L 183.4263458251953 225.37744140625 C 205.2281036376953 236.8374481201172 230.6098480224609 242.8946990966797 256.8280944824219 242.8946990966797 C 272.1903381347656 242.8946990966797 287.2513427734375 240.8316955566406 301.5931091308594 236.7626953125 C 315.4465942382812 232.8321990966797 328.3313598632812 227.1219482421875 339.8893432617188 219.7904510498047 L 340.5003356933594 219.4029541015625 L 341.0593566894531 219.8619537353516 C 360.3013610839844 235.6514434814453 385.3740844726562 244.3469543457031 411.6590881347656 244.3469543457031 C 419.1135864257812 244.3469543457031 426.5533447265625 243.6454467773438 433.7713623046875 242.2619476318359 C 440.7968444824219 240.9151916503906 447.68359375 238.9094543457031 454.2398376464844 236.3002014160156 C 460.6753540039062 233.7391967773438 466.8425903320312 230.5771942138672 472.5700988769531 226.9026947021484 C 478.2478332519531 223.2599487304688 483.5290832519531 219.0909423828125 488.266845703125 214.5114440917969 L 488.819091796875 213.9774475097656 L 489.4773559570312 214.3737030029297 C 503.1246032714844 222.585205078125 519.0656127929688 226.9257049560547 535.5768432617188 226.9257049560547 C 556.6181030273438 226.9257049560547 576.672607421875 219.8471984863281 592.0458374023438 206.9942016601562 L 592.5513305664062 206.5717010498047 L 593.1390991210938 206.8692016601562 C 618.6793212890625 219.8029479980469 652.006103515625 226.9257049560547 686.9805908203125 226.9257049560547 C 701.485595703125 226.9257049560547 715.7713623046875 225.7071990966797 729.4408569335938 223.303955078125 C 742.6563720703125 220.9804534912109 755.1226196289062 217.5836944580078 766.4935913085938 213.2077026367188 L 767.1990966796875 212.9362030029297 L 767.652587890625 213.5406951904297 C 771.20458984375 218.2734527587891 775.173095703125 222.5827026367188 779.4481201171875 226.3491973876953 C 783.7536010742188 230.1424407958984 788.3945922851562 233.4064483642578 793.2423706054688 236.0507049560547 C 798.1748657226562 238.7409515380859 803.3585815429688 240.8092041015625 808.6493530273438 242.1979522705078 C 814.0823364257812 243.6239471435547 819.68310546875 244.3469543457031 825.2965698242188 244.3469543457031 C 831.5880737304688 244.3469543457031 837.8455810546875 243.4407043457031 843.8958740234375 241.6534423828125 C 849.7763671875 239.9161987304688 855.4901123046875 237.3392028808594 860.8781127929688 233.9944458007812 L 861.47607421875 233.6231994628906 L 862.02734375 234.0606994628906 C 867.1043701171875 238.0921936035156 872.7515869140625 241.7609405517578 878.8128662109375 244.9654541015625 C 884.9313354492188 248.199951171875 891.5118408203125 250.9826965332031 898.371826171875 253.2359466552734 C 905.3623657226562 255.5321960449219 912.7008666992188 257.2969360351562 920.18359375 258.481689453125 C 927.87060546875 259.6989440917969 935.7916259765625 260.3159484863281 943.7266235351562 260.3159484863281 C 952.5106201171875 260.3159484863281 961.255859375 259.5609436035156 969.7196044921875 258.0719604492188 C 977.942626953125 256.6251831054688 985.9498291015625 254.4779510498047 993.5188598632812 251.689453125 C 1000.948120117188 248.9526977539062 1007.978088378906 245.5906982421875 1014.413818359375 241.6964416503906 C 1020.806335449219 237.8287048339844 1026.62109375 233.4311981201172 1031.696899414062 228.6261901855469 L 1032.183837890625 228.1651916503906 L 1032.795043945312 228.4407043457031 C 1040.06689453125 231.7176971435547 1047.696044921875 234.2359466552734 1055.471313476562 235.9254455566406 C 1063.45458984375 237.6604461669922 1071.680541992188 238.5399475097656 1079.9208984375 238.5399475097656 C 1090.978393554688 238.5399475097656 1101.917846679688 236.9656982421875 1112.435546875 233.8611907958984 C 1122.626586914062 230.8531951904297 1132.375610351562 226.4252014160156 1141.412109375 220.7004547119141 L 1142.046630859375 220.2984466552734 L 1142.609375 220.7957000732422 C 1149.385375976562 226.7816925048828 1156.992065429688 232.2469482421875 1165.218627929688 237.0397033691406 C 1173.4208984375 241.8181915283203 1182.25634765625 245.9384460449219 1191.479370117188 249.2856903076172 C 1200.788330078125 252.6641998291016 1210.51611328125 255.2637023925781 1220.39208984375 257.0116882324219 C 1230.4736328125 258.7962036132812 1240.75634765625 259.7009582519531 1250.954833984375 259.7009582519531 C 1259.058349609375 259.70068359375 1267.1953125 259.126708984375 1275.139892578125 257.9946899414062 C 1287.332885742188 256.2576904296875 1298.992065429688 253.2286987304688 1309.793579101562 248.9911956787109 L 1310.20263671875 248.8309478759766 L 1310.597290039062 249.0234527587891 C 1319.501342773438 253.3689422607422 1328.968139648438 256.7194519042969 1338.73486328125 258.98193359375 C 1348.796630859375 261.3126831054688 1359.210327148438 262.4944458007812 1369.686645507812 262.4944458007812 C 1383.8203125 262.4944458007812 1397.694580078125 260.3641967773438 1410.923583984375 256.1632080078125 C 1423.708862304688 252.1029510498047 1435.647583007812 246.1929473876953 1446.407836914062 238.5974426269531 L 1447.18115234375 238.0516967773438 L 1447.7685546875 238.793701171875 C 1454.008056640625 246.6734466552734 1461.777099609375 253.6499481201172 1470.85986328125 259.5289611816406 C 1480.252319335938 265.6081848144531 1490.997802734375 270.4764404296875 1502.798583984375 273.9984436035156 C 1517.0908203125 278.2647094726562 1532.436157226562 280.4271850585938 1548.407592773438 280.4262084960938 C 1563.800048828125 280.4252014160156 1579.429565429688 278.4226989746094 1594.862060546875 274.4742126464844 C 1610.156616210938 270.5611877441406 1624.808349609375 264.8536987304688 1638.410400390625 257.5107116699219 L 1638.89013671875 257.251708984375 L 1639.367797851562 257.5147094726562 C 1651.073852539062 263.9617004394531 1663.780883789062 269.6839599609375 1677.136352539062 274.5224609375 C 1690.879150390625 279.501708984375 1705.40185546875 283.5776977539062 1720.301147460938 286.63720703125 C 1741.544799804688 290.9996948242188 1763.032592773438 293.2114562988281 1784.167358398438 293.2112121582031 L 1784.167358398438 294.2112121582031 M 1784.167358398438 294.2112121582031 C 1763.4560546875 294.2114562988281 1741.875854492188 292.0884399414062 1720.099853515625 287.61669921875 C 1689.645629882812 281.3629455566406 1662.147583007812 271.2019348144531 1638.885375976562 258.3906860351562 C 1611.542602539062 273.1517028808594 1579.65283203125 281.4241943359375 1548.407592773438 281.4262084960938 C 1532.7275390625 281.4271850585938 1517.217407226562 279.345947265625 1502.512573242188 274.9566955566406 C 1478.236083984375 267.7112121582031 1459.4423828125 255.1474456787109 1446.984619140625 239.4144439697266 C 1425.595581054688 254.512451171875 1398.784301757812 263.4944458007812 1369.686645507812 263.4944458007812 C 1348.171142578125 263.4944458007812 1327.904541015625 258.5829467773438 1310.158813476562 249.9221954345703 C 1299.484375 254.1096954345703 1287.801147460938 257.2012023925781 1275.280883789062 258.9847106933594 C 1267.158813476562 260.1419982910156 1259.022705078125 260.7007446289062 1250.954833984375 260.7008666992188 C 1209.310913085938 260.7014465332031 1169.423950195312 245.8184051513672 1141.947387695312 221.5451965332031 C 1123.940795898438 232.9526977539062 1102.686401367188 239.5399475097656 1079.9208984375 239.5399475097656 C 1063.001831054688 239.5399475097656 1046.920288085938 235.9031982421875 1032.384399414062 229.3524475097656 C 1011.839111328125 248.8022003173828 979.7628784179688 261.3159484863281 943.7266235351562 261.3159484863281 C 911.204345703125 261.3159484863281 881.9108276367188 251.1266937255859 861.4055786132812 234.8439483642578 C 850.5941162109375 241.5556945800781 838.3165893554688 245.3469543457031 825.2965698242188 245.3469543457031 C 802.0875854492188 245.3469543457031 781.2318725585938 233.2996978759766 766.8528442382812 214.1409454345703 C 744.2943725585938 222.8222045898438 716.7316284179688 227.9257049560547 686.9805908203125 227.9257049560547 C 650.5405883789062 227.9257049560547 617.3931274414062 220.2724456787109 592.6873779296875 207.7614440917969 C 577.7230834960938 220.2724456787109 557.6480712890625 227.9257049560547 535.5768432617188 227.9257049560547 C 518.3206176757812 227.9257049560547 502.2888488769531 223.2494506835938 488.9618530273438 215.2304534912109 C 469.8138427734375 233.7386932373047 442.2716064453125 245.3469543457031 411.6590881347656 245.3469543457031 C 384.1473388671875 245.3469543457031 359.1130981445312 235.9699401855469 340.4251098632812 220.6349487304688 C 317.4718627929688 235.1947021484375 288.4198608398438 243.8946990966797 256.8280944824219 243.8946990966797 C 229.5478515625 243.8946990966797 204.1633453369141 237.4074401855469 182.9611053466797 226.2626953125 C 157.2301025390625 244.8314514160156 126.4323501586914 255.7606964111328 96.37709808349609 255.7626953125 C 96.37162017822266 255.7626953125 96.36601257324219 255.7626953125 96.36054229736328 255.7626953125 C 88.88959503173828 255.7627105712891 81.47500610351562 255.08642578125 74.18534851074219 253.6851959228516 C 12.10259819030762 241.7507019042969 -16.67965126037598 181.7019500732422 9.900097846984863 119.5621948242188 C 33.3569221496582 64.72341156005859 92.09723663330078 26.58000183105469 148.2470397949219 26.58000183105469 C 155.7225494384766 26.58000183105469 163.1450042724609 27.25509834289551 170.4396057128906 28.65719795227051 C 181.3135986328125 30.7474479675293 191.1648406982422 34.31344604492188 199.8786010742188 39.10919952392578 C 217.1708526611328 32.64669799804688 236.4736022949219 29.03469848632812 256.8280944824219 29.03469848632812 C 300.1093444824219 29.03469848632812 338.6178588867188 45.36219787597656 363.2238464355469 70.72219848632812 C 377.7076110839844 64.03019714355469 394.1841125488281 60.2474479675293 411.6590881347656 60.2474479675293 C 442.2716064453125 60.2474479675293 469.8138427734375 71.85594940185547 488.9618530273438 90.36294555664062 C 502.2888488769531 82.34519958496094 518.3206176757812 77.6689453125 535.5768432617188 77.6689453125 C 557.6480712890625 77.6689453125 577.7230834960938 85.32119750976562 592.6873779296875 97.83219909667969 C 617.3931274414062 85.32119750976562 650.5405883789062 77.6689453125 686.9805908203125 77.6689453125 C 716.0093383789062 77.6689453125 742.9520874023438 82.52645111083984 765.1973266601562 90.82544708251953 C 779.6046142578125 70.35169982910156 801.1798706054688 57.34394836425781 825.2965698242188 57.34394836425781 C 854.4415893554688 57.34394836425781 879.8773193359375 76.34294891357422 893.4318237304688 104.5601959228516 C 908.5623779296875 98.96595001220703 925.6445922851562 95.81544494628906 943.7266235351562 95.81544494628906 C 950.7891235351562 95.81544494628906 957.7003784179688 96.29644775390625 964.40234375 97.2156982421875 C 974.7625732421875 41.85319900512695 1022.543090820312 -5.236816286924295e-05 1079.9208984375 -5.236816286924295e-05 C 1122.3173828125 -5.236816286924295e-05 1159.475830078125 22.85019683837891 1180.166625976562 57.11769866943359 C 1189.187377929688 54.02894592285156 1198.8623046875 51.69769668579102 1209.093627929688 50.23944854736328 C 1217.213623046875 49.08249282836914 1225.35009765625 48.52368927001953 1233.416381835938 48.52368927001953 C 1252.877319335938 48.52368927001953 1271.951416015625 51.77289962768555 1289.558837890625 57.71144866943359 C 1311.388305664062 41.37694931030273 1339.28857421875 31.57544708251953 1369.686645507812 31.57544708251953 C 1420.043090820312 31.57544708251953 1463.536376953125 58.46494674682617 1483.961303710938 97.41669464111328 C 1514.80419921875 75.3310546875 1554.57958984375 62.58744430541992 1593.3662109375 62.58744430541992 C 1607.766723632812 62.58744430541992 1622.026123046875 64.34286499023438 1635.648315429688 68.02894592285156 C 1661.440185546875 58.19358062744141 1692.172973632812 52.82250213623047 1725.11083984375 52.82250213623047 C 1745.821899414062 52.82250213623047 1767.403442382812 54.94557189941406 1789.18115234375 59.41744613647461 C 1894.737060546875 81.09369659423828 1964.843383789062 149.7501983642578 1945.76708984375 212.7649536132812 C 1930.625854492188 262.7807006835938 1863.850830078125 294.210205078125 1784.167358398438 294.2112121582031 Z" stroke="none" fill="#707070"/>
  </g>
</svg>
